<?xml version="1.0" encoding="UTF-8" standalone="no"?>
<!-- Created with Inkscape (http://www.inkscape.org/) -->

<svg
   xmlns:dc="http://purl.org/dc/elements/1.1/"
   xmlns:cc="http://creativecommons.org/ns#"
   xmlns:rdf="http://www.w3.org/1999/02/22-rdf-syntax-ns#"
   xmlns:svg="http://www.w3.org/2000/svg"
   xmlns="http://www.w3.org/2000/svg"
   xmlns:sodipodi="http://sodipodi.sourceforge.net/DTD/sodipodi-0.dtd"
   xmlns:inkscape="http://www.inkscape.org/namespaces/inkscape"
   width="744.09448819"
   height="1052.3622047"
   id="svg2"
   version="1.1"
   inkscape:version="0.48.5 r10040"
   sodipodi:docname="drawing-3.svg">
  <sodipodi:namedview
     id="base"
     pagecolor="#ffffff"
     bordercolor="#666666"
     borderopacity="1.0"
     inkscape:pageopacity="0.0"
     inkscape:pageshadow="2"
     inkscape:zoom="1.4612842"
     inkscape:cx="402.43054"
     inkscape:cy="808.23642"
     inkscape:document-units="px"
     inkscape:current-layer="layer1"
     showgrid="false"
     inkscape:window-width="1366"
     inkscape:window-height="706"
     inkscape:window-x="-8"
     inkscape:window-y="-8"
     inkscape:window-maximized="1" />
  <defs
     id="defs4" />
  <metadata
     id="metadata7">
    <rdf:RDF>
      <cc:Work
         rdf:about="">
        <dc:format>image/svg+xml</dc:format>
        <dc:type
           rdf:resource="http://purl.org/dc/dcmitype/StillImage" />
        <dc:title />
      </cc:Work>
    </rdf:RDF>
  </metadata>
  <g
     id="layer1"
     inkscape:groupmode="layer"
     inkscape:label="Layer 1">
    <path
       sodipodi:nodetypes="ssssssssss"
       inkscape:connector-curvature="0"
       id="path2985"
       d="M505.71429 75.219324L487.972271152 71.4785154126L469.796685156 68.882274832L451.287354082 67.4146669058L432.5441 67.0597562813L413.66674498 67.801607606L394.755111094 69.6242855273L375.90902041 72.5118546929L357.228295 76.44837975L338.812756934 81.4179253462L320.762228281 87.4045561289L303.176531113 94.3923367456L286.1554875 102.365331844L269.798919512 111.307606071L254.206649219 121.203224074L239.478498691 132.036250501L225.71429 143.79075L214.970141157 154.28811688L204.419225039 165.800988008L194.194457261 178.209789741L184.428753438 191.394948438L175.255029185 205.236890454L166.806200117 219.616042148L159.215181851 234.412829878L152.61489 249.50768L147.138240181 264.781018872L142.918148008 280.113272852L140.087529097 295.384868296L138.779299063 310.476231563L139.126373521 325.267789009L141.261668086 339.639966992L145.318098374 353.47319187L151.42858 366.64789L156.696222949 374.590901138L163.091493125 381.79183957L170.487558145 388.244002202L178.757585625 393.940685938L187.774743184 398.875187681L197.412198438 403.040804336L207.543119004 406.430832808L218.0406725 409.03857L228.778026543 410.857312817L239.62834875 411.880358164L250.464806738 412.101002944L261.160568125 411.512544062L271.588800527 410.108278423L281.622671563 407.88150293L291.135348848 404.825514487L300.0 400.93361L304.584678249 398.167217292L308.659991926 394.820066934L315.42325666 386.558154844L320.571256384 376.497196895L324.385453281 364.98651625L327.147309534 352.375436074L329.138287324 339.013279531L331.93345625 311.43303L335.02265752 285.040352969L337.38117574 273.162662051L340.657588594 262.62983375L345.133358264 253.79119123L351.089946934 246.996057656L354.711505325 244.473970212L358.808816785 242.593756191L363.417064085 241.399080989L368.57143 240.93361L374.181279075 241.27299273L379.213889436 242.444830671L383.706921412 244.398250948L387.698035332 247.082380684L391.224891525 250.446347004L394.32515032 254.439277034L399.396517031 264.108536719L403.213418098 275.683176736L406.077136152 288.756214082L410.15015375 317.76954875L414.025830879 347.892676699L416.642873347 362.352955647L420.114428594 375.869733906L424.74177925 388.036028474L430.826207949 398.444856348L434.508977387 402.863038086L438.668997322 406.689234524L443.343928083 409.872572787L448.57143 412.36218L463.193722605 416.845366348L479.341761465 419.737871719L496.658576272 421.08919998L514.787196719 420.948855L533.370652498 419.366340645L552.051973301 416.391160781L570.474188821 412.072819277L588.28032875 406.46082L605.113422781 399.604666816L620.616500605 391.553863594L634.432591917 382.357914199L646.204726406 372.0663225L655.575933767 360.728592363L659.249636553 354.682895339L662.189243691 348.394227656L664.350133894 341.868777297L665.687685872 335.112732246L666.157278336 328.132280486L665.71429 320.93361L664.372639459 314.903416005L662.029010049 309.850280698L658.750204774 305.709066282L654.603026641 302.414634961L649.654278654 299.901848937L643.970763818 298.105570415L630.666645625 296.401984687L615.225096104 296.782775405L598.180539297 298.726840195L561.4201 305.2203825L524.660720078 311.713792617L507.61748749 313.657692173L492.177791875 314.038251563L478.876057275 312.334368413L473.19393287 310.537916395L468.246707734 308.024940352L464.101184874 304.730302487L460.824167295 300.588865005L458.482458002 295.535490108L457.14286 289.50504L456.898862732 283.243668788L457.77490678 277.690689792L459.700308731 272.798954666L462.604385176 268.521315059L466.416452702 264.810622622L471.065827898 261.619729006L482.593767656 256.608744844L496.622737161 253.111175779L512.587269121 250.74983502L548.06115125 247.92709125L584.491675723 245.123019199L601.652010613 242.785018088L617.355104219 239.320124531L631.03548925 234.351151736L636.940457523 231.184764751L642.127698418 227.50091291L646.526528524 223.252447863L650.066264431 218.392221262L652.676222727 212.873084757L654.28572 206.64789L655.092695603 194.594485084L653.618885918 182.919059391L650.064668079 171.650306502L644.630419219 160.81692L637.516516472 150.447593467L628.923336973 140.571020484L619.051257854 131.215894635L608.10065625 122.4109095L596.271909294 114.184758662L583.765394121 106.566135703L557.520567656 93.26624775L530.969193926 82.7407942969L505.71429 75.219324L505.71429 75.219324"
       style="fill:none;stroke:#000000;stroke-width:1px;stroke-linecap:butt;stroke-linejoin:miter;stroke-opacity:1" />
  </g>
</svg>
