<?xml version="1.0" encoding="UTF-8" standalone="no"?>
<!-- Created with Inkscape (http://www.inkscape.org/) -->

<svg
   xmlns:dc="http://purl.org/dc/elements/1.1/"
   xmlns:cc="http://creativecommons.org/ns#"
   xmlns:rdf="http://www.w3.org/1999/02/22-rdf-syntax-ns#"
   xmlns:svg="http://www.w3.org/2000/svg"
   xmlns="http://www.w3.org/2000/svg"
   xmlns:sodipodi="http://sodipodi.sourceforge.net/DTD/sodipodi-0.dtd"
   xmlns:inkscape="http://www.inkscape.org/namespaces/inkscape"
   sodipodi:docname="drawing-1.svg"
   inkscape:version="0.48.5 r10040"
   version="1.1"
   id="svg2"
   height="1052.3622047"
   width="744.09448819">
  <sodipodi:namedview
     id="base"
     pagecolor="#ffffff"
     bordercolor="#666666"
     borderopacity="1.0"
     inkscape:pageopacity="0.0"
     inkscape:pageshadow="2"
     inkscape:zoom="7.4624103"
     inkscape:cx="15.738381"
     inkscape:cy="1054.5852"
     inkscape:document-units="px"
     inkscape:current-layer="layer1"
     showgrid="false"
     inkscape:window-width="1366"
     inkscape:window-height="706"
     inkscape:window-x="-8"
     inkscape:window-y="-8"
     inkscape:window-maximized="1"
     showguides="true"
     inkscape:guide-bbox="true" />
  <defs
     id="defs4" />
  <metadata
     id="metadata7">
    <rdf:RDF>
      <cc:Work
         rdf:about="">
        <dc:format>image/svg+xml</dc:format>
        <dc:type
           rdf:resource="http://purl.org/dc/dcmitype/StillImage" />
        <dc:title></dc:title>
      </cc:Work>
    </rdf:RDF>
  </metadata>
  <g
     inkscape:label="Layer 1"
     inkscape:groupmode="layer"
     id="layer1">
    <path
       inkscape:connector-curvature="0"
       id="path3031"
       d="M0.05052697 -17.092699L-3.55893814197 -16.7466880439L-6.92074817516 -15.7543473197L-9.9629009917 -14.1842150438L-12.6133944538 -12.1048294325L-14.8002264235 -9.58472870215L-16.451394763 -6.69245106906L-17.4948973344 -3.49653474957L-17.858732 -0.06551796L-17.4948973344 3.36721226801L-16.451394763 6.56764588406L-14.8002264235 9.46631005371L-12.6133944538 11.9937319425L-9.9629009917 14.080438716L-6.92074817516 15.6569575397L-3.55893814197 16.6538155792L0.05052697 17.00154L3.65999210178 16.6538155792L7.02180214984 15.6569575397L10.0639549771 14.080438716L12.7144484463 11.9937319425L14.9012804203 9.46631005371L16.552448762 6.56764588406L17.5959513343 3.36721226801L17.959786 -0.06551796L17.5959513343 -3.49653474957L16.552448762 -6.69245106906L14.9012804203 -9.58472870215L12.7144484463 -12.1048294325L10.0639549771 -14.1842150438L7.02180214984 -15.7543473197L3.65999210178 -16.7466880439L0.05052697 -17.092699L0.05052697 -17.092699M0.05052697 -15.816658L3.38198833166 -15.4979281626L6.48533967641 -14.5832348072L9.29397951514 -13.1348221688L11.7413063587 -11.2149344825L13.7607187181 -8.8858159834L15.2856151042 -6.20971090656L16.2493940279 -3.24886348707L16.585454 -0.06551796L16.2493940279 3.11954101996L15.2856151042 6.08490564969L13.7607187181 8.76739710645L11.7413063587 11.1038365675L9.29397951514 13.0310452101L6.48533967641 14.4858442116L3.38198833166 15.4050547491L0.05052697 15.725498L-3.2809342283 15.4050547491L-6.38428549078 14.4858442116L-9.19292531006 13.0310452101L-11.6402521788 11.1038365675L-13.6596645895 8.76739710645L-15.1845610348 6.08490564969L-16.1483400075 3.11954101996L-16.4844 -0.06551796L-16.1483400075 -3.24886348707L-15.1845610348 -6.20971090656L-13.6596645895 -8.8858159834L-11.6402521788 -11.2149344825L-9.19292531006 -13.1348221688L-6.38428549078 -14.5832348072L-3.2809342283 -15.4979281626L0.05052697 -15.816658L0.05052697 -15.816658"
       style="font-size:medium;font-style:normal;font-variant:normal;font-weight:normal;font-stretch:normal;text-indent:0;text-align:start;text-decoration:none;line-height:normal;letter-spacing:normal;word-spacing:normal;text-transform:none;direction:ltr;block-progression:tb;writing-mode:lr-tb;text-anchor:start;baseline-shift:baseline;color:#000000;fill:#000000;fill-opacity:1;stroke:none;stroke-width:1;marker:none;visibility:visible;display:inline;overflow:visible;enable-background:accumulate;font-family:Sans;-inkscape-font-specification:Sans" />
  </g>
</svg>
