<?xml version="1.0" encoding="UTF-8" standalone="no"?>
<!-- Created with Inkscape (http://www.inkscape.org/) -->

<svg
   xmlns:dc="http://purl.org/dc/elements/1.1/"
   xmlns:cc="http://creativecommons.org/ns#"
   xmlns:rdf="http://www.w3.org/1999/02/22-rdf-syntax-ns#"
   xmlns:svg="http://www.w3.org/2000/svg"
   xmlns="http://www.w3.org/2000/svg"
   xmlns:sodipodi="http://sodipodi.sourceforge.net/DTD/sodipodi-0.dtd"
   xmlns:inkscape="http://www.inkscape.org/namespaces/inkscape"
   inkscape:version="0.48.5 r10040"
   version="1.1"
   id="svg2"
   height="1052.3622047"
   width="744.09448819"
   sodipodi:docname="New document 1">
  <sodipodi:namedview
     id="base"
     pagecolor="#ffffff"
     bordercolor="#666666"
     borderopacity="1.0"
     inkscape:pageopacity="0.0"
     inkscape:pageshadow="2"
     inkscape:zoom="1.4"
     inkscape:cx="493.65617"
     inkscape:cy="768.7671"
     inkscape:document-units="px"
     inkscape:current-layer="layer1"
     showgrid="false"
     inkscape:window-width="1366"
     inkscape:window-height="706"
     inkscape:window-x="-8"
     inkscape:window-y="-8"
     inkscape:window-maximized="1" />
  <defs
     id="defs4" />
  <metadata
     id="metadata7">
    <rdf:RDF>
      <cc:Work
         rdf:about="">
        <dc:format>image/svg+xml</dc:format>
        <dc:type
           rdf:resource="http://purl.org/dc/dcmitype/StillImage" />
        <dc:title></dc:title>
      </cc:Work>
    </rdf:RDF>
  </metadata>
  <g
     id="layer1"
     inkscape:groupmode="layer"
     inkscape:label="Layer 1">
    <path
       sodipodi:nodetypes="sssssss"
       inkscape:connector-curvature="0"
       id="path2985"
       d="M294.28572 91.312014L225.729105 103.7032695L174.28572 124.71684L137.469136563 152.837408125L112.982975 183.85796L107.740884648 199.569097422L108.433898438 214.941271875L116.012849258 229.619830391L131.42857 243.25012L197.675802344 272.505148906L289.69637875 294.03952125L392.583050781 304.457065469L491.42857 300.36161L551.423131875 284.776232188L593.1113225 260.01629L618.243851875 230.644777813L628.57143 201.22469L624.310292656 174.078476094L605.07734125 147.09725375L571.162864219 122.664912031L522.85715 103.16534L472.003857188 92.7970277813L413.7455725 87.87748975L294.28572 91.312014L294.28572 91.312014"
       style="fill:none;stroke:#000000;stroke-width:0.6141265px;stroke-linecap:butt;stroke-linejoin:miter;stroke-opacity:1" />
    <path
       sodipodi:nodetypes="aaaaaaaaa"
       inkscape:connector-curvature="0"
       id="path2995"
       d="M262.85714 318.07647L205.689551094 342.981047812L155.50057625 386.8256625L121.847025781 442.009965937L114.20753791 471.479392148L114.28571 500.93361L120.250594863 518.728404492L131.535898281 533.342410312L165.40617375 555.54771L245.71429 589.50504L301.07018 619.60058125L329.933148437 630.821889844L360.0 635.21933L408.872079844 629.01713625L456.22120125 612.6223075L501.174007031 588.95456L542.85714 560.93361L568.45004375 539.81946125L582.85714 512.36218L580.217734531 485.694576719L568.99174875 460.12082125L531.42857 418.07647L501.821059844 403.147657656L468.27921375 396.31745875L400.0 383.79076L365.445366875 364.608215156L332.126085 340.23373625L298.458045625 321.209196719L262.85714 318.07647L262.85714 318.07647"
       style="fill:none;stroke:#000000;stroke-width:1px;stroke-linecap:butt;stroke-linejoin:miter;stroke-opacity:1" />
    <path
       sodipodi:nodetypes="ssssssssss"
       inkscape:connector-curvature="0"
       id="path2997"
       d="M200.0 649.50504L154.233698922 681.691643125L118.271017125 729.1222325L98.1728267656 783.887083125L95.9669384238 811.548067344L100.0 838.07647L111.288563555 862.887855664L128.782985938 883.794152812L177.4046325 915.4829075L235.895390312 936.325585937L294.28571 949.50504L379.665151719 960.693017969L467.75699375 959.85614375L551.256051406 941.700860156L589.000415879 924.474578223L622.85714 900.93361L651.735373438 866.103510313L670.1644775 822.914865L678.511342813 775.878449688L677.14286 729.50504L661.93113625 684.70849875L647.498745781 666.459852969L628.57143 655.21933L613.708134375 654.470676563L598.847325 659.7569675L571.42857 678.07647L554.567609648 695.04154416L540.752391562 716.690436406L517.435185 765.38587375L491.828955938 806.855179219L475.152459727 819.471406621L454.28571 823.79075L435.679825059 818.803602656L421.416736719 806.216764375L400.72243375 766.4972775L381.809768906 721.138814375L369.773728223 701.503255781L354.28571 686.6479L318.39816125 665.3993325L278.7276725 648.913205L238.264775 642.00871L200.0 649.50504L200.0 649.50504"
       style="fill:none;stroke:#000000;stroke-width:1px;stroke-linecap:butt;stroke-linejoin:miter;stroke-opacity:1" />
  </g>
</svg>
