<?xml version="1.0" encoding="UTF-8" standalone="no"?>
<svg width="82.55mm" height="56.4444mm"
 viewBox="0 0 234 160"
 xmlns="http://www.w3.org/2000/svg" xmlns:xlink="http://www.w3.org/1999/xlink"  version="1.2" baseProfile="tiny">
<title>Qt SVG Document</title>
<desc>Generated with Qt</desc>
<defs>
</defs>
<g fill="none" stroke="black" stroke-width="1" fill-rule="evenodd" stroke-linecap="square" stroke-linejoin="bevel" >

<g fill="#ffffff" fill-opacity="1" stroke="none" transform="matrix(1,0,0,1,0,0)"
font-family="MS Shell Dlg 2" font-size="8.25" font-weight="400" font-style="normal" 
>
<path vector-effect="none" fill-rule="evenodd" d="M0,0 L234,0 L234,160 L0,160 L0,0"/>
</g>

<g fill="none" stroke="#000000" stroke-opacity="1" stroke-width="1" stroke-linecap="round" stroke-linejoin="round" transform="matrix(1,0,0,1,0,0)"
font-family="MS Shell Dlg 2" font-size="8.25" font-weight="400" font-style="normal" 
>
<polyline fill="none" vector-effect="non-scaling-stroke" points="10,69 26,21 " />
<polyline fill="none" vector-effect="non-scaling-stroke" points="26,21 40,97 " />
<polyline fill="none" vector-effect="non-scaling-stroke" points="40,97 91,6 " />
<polyline fill="none" vector-effect="non-scaling-stroke" points="91,6 138,17 " />
<polyline fill="none" vector-effect="non-scaling-stroke" points="138,17 226,56 " />
<polyline fill="none" vector-effect="non-scaling-stroke" points="226,56 179,133 " />
<polyline fill="none" vector-effect="non-scaling-stroke" points="179,133 120,54 " />
<polyline fill="none" vector-effect="non-scaling-stroke" points="120,54 51,156 " />
<polyline fill="none" vector-effect="non-scaling-stroke" points="51,156 10,69 " />
<polyline fill="none" vector-effect="non-scaling-stroke" points="134,26 223,65 " />
<polyline fill="none" vector-effect="non-scaling-stroke" points="219,51 171,128 " />
<polyline fill="none" vector-effect="non-scaling-stroke" points="186,127 127,48 " />
<polyline fill="none" vector-effect="non-scaling-stroke" points="112,48 43,151 " />
<polyline fill="none" vector-effect="non-scaling-stroke" points="60,152 18,65 " />
<polyline fill="none" vector-effect="non-scaling-stroke" points="18,72 35,24 " />
<polyline fill="none" vector-effect="non-scaling-stroke" points="17,22 30,99 " />
<polyline fill="none" vector-effect="non-scaling-stroke" points="48,102 99,10 " />
<polyline fill="none" vector-effect="non-scaling-stroke" points="89,15 135,26 " />
<polyline fill="none" vector-effect="non-scaling-stroke" points="87,24 133,35 " />
<polyline fill="none" vector-effect="non-scaling-stroke" points="130,34 219,73 " />
<polyline fill="none" vector-effect="non-scaling-stroke" points="211,46 163,123 " />
<polyline fill="none" vector-effect="non-scaling-stroke" points="194,122 135,42 " />
<polyline fill="none" vector-effect="non-scaling-stroke" points="104,43 36,145 " />
<polyline fill="none" vector-effect="non-scaling-stroke" points="68,148 26,61 " />
<polyline fill="none" vector-effect="non-scaling-stroke" points="27,75 44,27 " />
<polyline fill="none" vector-effect="non-scaling-stroke" points="8,24 21,101 " />
<polyline fill="none" vector-effect="non-scaling-stroke" points="97,38 28,140 " />
</g>
</g>
</svg>
